<svg width="52" height="78" viewBox="0 0 52 78" fill="none" xmlns="http://www.w3.org/2000/svg">
<path d="M12.8333 18.7454C10.5178 18.7454 8.2023 18.7454 5.88615 18.7454C5.71983 18.7454 5.71333 18.7454 5.72763 18.5803C5.74907 18.3261 5.76531 18.0706 5.81014 17.8197C5.8985 17.3236 6.01479 16.8328 6.19541 16.3601C6.39356 15.8432 6.63785 15.3498 6.9406 14.8869C7.32652 14.2972 7.78195 13.7687 8.31795 13.311C8.72465 12.9638 9.16189 12.6628 9.63422 12.4118C9.70049 12.3767 9.73687 12.3988 9.7856 12.4326C10.0162 12.5913 10.241 12.7603 10.4821 12.9027C10.8193 13.1023 11.1844 13.2395 11.5632 13.3461C12.1329 13.5067 12.7138 13.5431 13.2972 13.495C13.737 13.4586 14.1652 13.3526 14.5797 13.1901C15.0533 13.0041 15.4879 12.7551 15.8823 12.4346C15.9323 12.3936 15.9739 12.3793 16.0415 12.4151C16.8049 12.8247 17.4747 13.3513 18.051 13.9995C18.5064 14.5118 18.8943 15.0702 19.1814 15.6918C19.3568 16.0708 19.5128 16.4628 19.6362 16.8614C19.7642 17.2748 19.8669 17.6981 19.8948 18.1343C19.9058 18.3073 19.9279 18.4795 19.9455 18.6518C19.9526 18.7207 19.9253 18.7467 19.8545 18.7467C19.1119 18.7435 18.37 18.7428 17.6274 18.7422C17.3779 18.7422 17.1284 18.7454 16.8789 18.7454C15.5302 18.7454 14.1808 18.7454 12.832 18.7454H12.8333Z" fill="#1E2D39"/>
<path d="M12.8419 4.50821C15.1112 4.48806 17.0077 6.38385 16.9921 8.68988C16.9771 10.9562 15.1216 12.8325 12.8172 12.8254C10.5485 12.8182 8.65006 10.9497 8.67604 8.60796C8.70073 6.3741 10.553 4.48286 12.8419 4.50756V4.50821Z" fill="#1E2D39"/>
<path d="M12.8165 25.6504C5.74912 25.6504 0 19.8967 0 12.8252C0 5.75369 5.74912 0 12.8165 0C19.8838 0 25.6329 5.75304 25.6329 12.8252C25.6329 19.8974 19.8838 25.6504 12.8165 25.6504ZM12.8165 1.42119C6.53264 1.42119 1.42022 6.5371 1.42022 12.8252C1.42022 19.1133 6.53264 24.2292 12.8165 24.2292C19.1003 24.2292 24.2127 19.1133 24.2127 12.8252C24.2127 6.5371 19.1003 1.42119 12.8165 1.42119V1.42119Z" fill="#1E2D39"/>
<path d="M38.8333 18.7454C36.5178 18.7454 34.2023 18.7454 31.8862 18.7454C31.7198 18.7454 31.7133 18.7454 31.7276 18.5803C31.7491 18.3261 31.7653 18.0706 31.8101 17.8197C31.8985 17.3236 32.0148 16.8328 32.1954 16.3601C32.3936 15.8432 32.6378 15.3498 32.9406 14.8869C33.3265 14.2972 33.782 13.7687 34.3179 13.311C34.7247 12.9638 35.1619 12.6628 35.6342 12.4118C35.7005 12.3767 35.7369 12.3988 35.7856 12.4326C36.0162 12.5913 36.241 12.7603 36.4821 12.9027C36.8193 13.1023 37.1844 13.2395 37.5632 13.3461C38.1329 13.5067 38.7138 13.5431 39.2972 13.495C39.737 13.4586 40.1652 13.3526 40.5797 13.1901C41.0533 13.0041 41.4879 12.7551 41.8823 12.4346C41.9323 12.3936 41.9739 12.3793 42.0415 12.4151C42.8049 12.8247 43.4747 13.3513 44.051 13.9995C44.5064 14.5118 44.8943 15.0702 45.1814 15.6918C45.3568 16.0708 45.5128 16.4628 45.6362 16.8614C45.7642 17.2748 45.8669 17.6981 45.8948 18.1343C45.9058 18.3073 45.9279 18.4795 45.9455 18.6518C45.9526 18.7207 45.9253 18.7467 45.8545 18.7467C45.1119 18.7435 44.37 18.7428 43.6274 18.7422C43.3779 18.7422 43.1284 18.7454 42.8789 18.7454C41.5302 18.7454 40.1808 18.7454 38.832 18.7454H38.8333Z" fill="#ACA7A7"/>
<path d="M38.8419 4.50821C41.1112 4.48806 43.0077 6.38385 42.9921 8.68988C42.9771 10.9562 41.1216 12.8325 38.8172 12.8254C36.5485 12.8182 34.6501 10.9497 34.676 8.60796C34.7007 6.3741 36.553 4.48286 38.8419 4.50756V4.50821Z" fill="#ACA7A7"/>
<path d="M38.8165 25.6504C31.7491 25.6504 26 19.8967 26 12.8252C26 5.75369 31.7491 0 38.8165 0C45.8838 0 51.6329 5.75304 51.6329 12.8252C51.6329 19.8974 45.8838 25.6504 38.8165 25.6504ZM38.8165 1.42119C32.5326 1.42119 27.4202 6.5371 27.4202 12.8252C27.4202 19.1133 32.5326 24.2292 38.8165 24.2292C45.1003 24.2292 50.2127 19.1133 50.2127 12.8252C50.2127 6.5371 45.1003 1.42119 38.8165 1.42119V1.42119Z" fill="#ACA7A7"/>
<path d="M20.0845 42.5018V35.1858C20.0845 34.4583 19.2808 34.3433 19.2808 34.3433H6.61121C5.50153 34.3433 5.53921 35.1091 5.53921 35.1091V42.5011C5.53921 43.3437 6.34288 43.3054 6.34288 43.3054H19.4712C20.1982 43.3054 20.0838 42.5011 20.0838 42.5011L20.0845 42.5018ZM18.6584 42.7124C18.4031 42.6104 14.6264 39.1887 14.6264 39.1887L13.2231 40.3635C13.2231 40.3635 12.9424 40.8485 12.4578 40.3635L11.1051 39.1634L7.3538 42.5337C7.3538 42.5337 6.71581 42.7378 6.89447 42.0487L10.6458 38.8253L6.63979 35.3588L6.99712 34.9245L12.7131 39.9039L18.4544 35.0779C18.4544 35.0779 19.0158 34.9758 18.9904 35.4608L15.0611 38.8571L18.9917 42.2788C18.9917 42.2788 18.9144 42.8152 18.6591 42.7131L18.6584 42.7124Z" fill="#1E2D39"/>
<path d="M12.8165 51.6504C5.74977 51.6504 0 45.8967 0 38.8252C0 31.7537 5.74977 26 12.8165 26C19.8831 26 25.6329 31.753 25.6329 38.8252C25.6329 45.8974 19.8838 51.6504 12.8165 51.6504ZM12.8165 27.4212C6.53264 27.4212 1.42022 32.5371 1.42022 38.8252C1.42022 45.1133 6.53264 50.2292 12.8171 50.2292C19.1016 50.2292 24.2133 45.1133 24.2133 38.8252C24.2133 32.5371 19.1009 27.4212 12.8165 27.4212V27.4212Z" fill="#1E2D39"/>
<path d="M16.5445 72.1576L14.4531 68.1417C14.4531 68.1417 15.9792 67.1236 16.2339 67.7458L17.7321 70.5739C17.7321 70.5739 18.1564 71.1961 17.7321 71.592C17.7321 71.592 17.2364 71.8761 16.5451 72.1576H16.5445Z" fill="#1E2D39"/>
<path d="M11.2476 61.9516L9.15625 57.9357C9.15625 57.9357 10.6824 56.9176 10.9371 57.5398L12.4352 60.3678C12.4352 60.3678 12.8595 60.99 12.4352 61.386C12.4352 61.386 11.9402 61.6701 11.2483 61.9516H11.2476Z" fill="#1E2D39"/>
<path d="M10.8901 62.0879L8.80071 58.0435C8.80071 58.0435 7.33111 59.3444 7.81123 62.4553C7.81123 62.4553 8.5181 66.3834 11.3722 69.8492C11.3722 69.8492 13.1718 72.5239 16.1864 72.2977L14.1704 68.2818C14.1704 68.2818 13.6896 68.5646 13.3505 68.1121C13.3505 68.1121 11.061 65.0578 10.6088 63.4168C10.6088 63.4168 10.2736 62.333 10.8888 62.0873L10.8901 62.0879Z" fill="#1E2D39"/>
<path d="M12.8165 77.6504C5.74912 77.6504 0 71.8967 0 64.8252C0 57.7537 5.74912 52 12.8165 52C19.8838 52 25.6329 57.753 25.6329 64.8252C25.6329 71.8974 19.8838 77.6504 12.8165 77.6504ZM12.8165 53.4212C6.53264 53.4212 1.42022 58.5371 1.42022 64.8252C1.42022 71.1133 6.53264 76.2292 12.8165 76.2292C19.1003 76.2292 24.2127 71.1133 24.2127 64.8252C24.2127 58.5371 19.1003 53.4212 12.8165 53.4212V53.4212Z" fill="#1E2D39"/>
<path d="M46.0845 42.5018V35.1858C46.0845 34.4583 45.2808 34.3433 45.2808 34.3433H32.6112C31.5015 34.3433 31.5392 35.1091 31.5392 35.1091V42.5011C31.5392 43.3437 32.3429 43.3054 32.3429 43.3054H45.4712C46.1982 43.3054 46.0838 42.5011 46.0838 42.5011L46.0845 42.5018ZM44.6584 42.7124C44.4031 42.6104 40.6264 39.1887 40.6264 39.1887L39.2231 40.3635C39.2231 40.3635 38.9424 40.8485 38.4578 40.3635L37.1051 39.1634L33.3538 42.5337C33.3538 42.5337 32.7158 42.7378 32.8945 42.0487L36.6458 38.8253L32.6398 35.3588L32.9971 34.9245L38.7131 39.9039L44.4544 35.0779C44.4544 35.0779 45.0158 34.9758 44.9904 35.4608L41.0611 38.8571L44.9917 42.2788C44.9917 42.2788 44.9144 42.8152 44.6591 42.7131L44.6584 42.7124Z" fill="#ACA7A7"/>
<path d="M38.8165 51.6504C31.7498 51.6504 26 45.8967 26 38.8252C26 31.7537 31.7498 26 38.8165 26C45.8831 26 51.6329 31.753 51.6329 38.8252C51.6329 45.8974 45.8838 51.6504 38.8165 51.6504ZM38.8165 27.4212C32.5326 27.4212 27.4202 32.5371 27.4202 38.8252C27.4202 45.1133 32.5326 50.2292 38.8171 50.2292C45.1016 50.2292 50.2133 45.1133 50.2133 38.8252C50.2133 32.5371 45.1009 27.4212 38.8165 27.4212V27.4212Z" fill="#ACA7A7"/>
<path d="M42.5445 72.1576L40.4531 68.1417C40.4531 68.1417 41.9792 67.1236 42.2339 67.7458L43.7321 70.5739C43.7321 70.5739 44.1564 71.1961 43.7321 71.592C43.7321 71.592 43.2364 71.8761 42.5451 72.1576H42.5445Z" fill="#ACA7A7"/>
<path d="M37.2476 61.9516L35.1562 57.9357C35.1562 57.9357 36.6824 56.9176 36.9371 57.5398L38.4352 60.3678C38.4352 60.3678 38.8595 60.99 38.4352 61.386C38.4352 61.386 37.9402 61.6701 37.2483 61.9516H37.2476Z" fill="#ACA7A7"/>
<path d="M36.8901 62.0879L34.8007 58.0435C34.8007 58.0435 33.3311 59.3444 33.8112 62.4553C33.8112 62.4553 34.5181 66.3834 37.3722 69.8492C37.3722 69.8492 39.1718 72.5239 42.1864 72.2977L40.1704 68.2818C40.1704 68.2818 39.6896 68.5646 39.3505 68.1121C39.3505 68.1121 37.061 65.0578 36.6088 63.4168C36.6088 63.4168 36.2736 62.333 36.8888 62.0873L36.8901 62.0879Z" fill="#ACA7A7"/>
<path d="M38.8165 77.6504C31.7491 77.6504 26 71.8967 26 64.8252C26 57.7537 31.7491 52 38.8165 52C45.8838 52 51.6329 57.753 51.6329 64.8252C51.6329 71.8974 45.8838 77.6504 38.8165 77.6504ZM38.8165 53.4212C32.5326 53.4212 27.4202 58.5371 27.4202 64.8252C27.4202 71.1133 32.5326 76.2292 38.8165 76.2292C45.1003 76.2292 50.2127 71.1133 50.2127 64.8252C50.2127 58.5371 45.1003 53.4212 38.8165 53.4212V53.4212Z" fill="#ACA7A7"/>
</svg>
