<svg width="104" height="82" viewBox="0 0 104 82" fill="none" xmlns="http://www.w3.org/2000/svg">
<g clip-path="url(#clip0_12_3)">
<path d="M0.0601475 0.844584C0.0601475 10.9473 -0.0605014 20.8123 0.120472 30.7367C0.180796 34.4807 1.68891 37.8681 4.04156 40.78C9.10882 47.1388 17.4336 49.6942 25.0948 47.2576C33.0576 44.7022 38.3059 37.5709 38.3662 29.0133C38.4265 20.218 38.3662 11.4227 38.3662 2.56799C38.3662 2.03314 38.2455 1.43886 38.1852 0.904012C34.6261 0.904012 31.2479 0.904012 27.8094 0.904012C27.8094 2.09257 27.8094 3.04341 27.8094 4.05368C27.8094 12.1953 27.8697 20.2775 27.8094 28.419C27.8094 33.0544 24.9741 36.5012 20.9324 37.2738C15.3222 38.2246 10.7376 34.4807 10.6773 28.7162C10.5566 20.5152 10.6773 12.3141 10.6169 4.05368C10.6169 2.98398 10.6169 1.97371 10.6169 0.785156C6.99746 0.844584 3.67962 0.844584 0.0601475 0.844584Z" fill="#D8D7D7"/>
<path d="M75.8279 47.1388C79.2061 47.1388 82.5842 47.1388 86.2037 47.1388C86.2037 41.196 86.2037 35.4315 86.2037 29.4293C92.1758 29.4293 97.8463 29.4293 103.577 29.4293C103.577 26.1014 103.577 22.9517 103.577 19.5643C97.7257 19.5643 92.0552 19.5643 86.3847 19.5643C86.3847 14.6318 89.7025 11.3633 94.7698 11.185C97.7257 11.0662 100.742 11.185 103.758 11.185C103.758 7.55993 103.758 4.23198 103.758 0.904026C100.078 0.904026 96.5795 0.725742 93.0807 0.963453C84.3336 1.55773 76.6724 7.85707 76.0089 16.5335C75.285 26.5768 75.8279 36.7389 75.8279 47.1388Z" fill="#D8D7D7"/>
<path d="M44.0368 0.844584C43.8558 1.14172 43.7352 1.32001 43.7352 1.49829C43.6748 10.7096 43.4335 19.8615 43.7352 29.0728C43.9765 38.1058 50.1899 45.2371 59.3592 46.7822C63.7026 47.4954 68.2872 46.9011 72.8116 46.9011C72.8116 43.692 72.8116 40.364 72.8116 36.6795C69.1318 36.6795 65.6329 36.7984 62.1944 36.6201C58.4543 36.4418 55.5588 34.0647 54.6539 30.499C54.3523 29.251 54.2919 27.9436 54.2919 26.6956C54.2919 18.0786 54.2919 9.52103 54.2919 0.785156C50.6725 0.844584 47.3546 0.844584 44.0368 0.844584Z" fill="#D8D7D7"/>
<path d="M20.7516 63.7784C25.9395 58.311 20.9929 49.694 14.5985 49.1592C9.83284 48.7432 5.06721 49.0998 0.120605 49.0998V81.1907C5.06721 81.1907 9.89317 81.369 14.6588 81.1313C18.5799 80.953 22.2597 77.8033 23.4058 74.0594C24.733 70.0777 23.5265 66.6904 20.7516 63.7784ZM7.48019 61.5201V55.5774H12.4871C14.2365 55.6962 15.262 56.7659 15.262 58.4893C15.262 60.2127 14.2365 61.2824 12.5474 61.4607C10.979 61.6984 9.41057 61.5201 7.48019 61.5201ZM13.1507 74.1188C11.341 74.1783 9.59155 74.1188 7.60084 74.1188V67.9383C9.65187 67.9383 11.4616 67.8789 13.211 67.9383C15.1414 67.9978 16.1669 69.3052 16.1669 71.0286C16.1066 72.752 15.0207 74 13.1507 74.1188Z" fill="#00ADEE"/>
<path d="M25.9999 49.0405C28.5335 49.0405 30.7052 49.0405 33.1182 49.0405C33.1785 49.9319 33.2992 50.7639 33.2992 51.6553C33.2992 56.7067 33.1785 61.7581 33.3595 66.8094C33.4198 68.5328 33.8421 70.3751 34.6263 71.8608C35.7725 74.0002 38.4871 74.7727 40.9604 74.0596C43.3733 73.4059 45.1228 71.2665 45.1831 68.5328C45.2434 63.0655 45.1831 57.6576 45.1831 52.1902C45.1831 51.2394 45.1831 50.2291 45.1831 49.1C47.6564 49.1 49.8884 49.1 52.5427 49.1C52.5427 52.4873 52.5427 55.8153 52.5427 59.2027C52.5427 62.3523 52.603 65.5614 52.5427 68.7111C52.422 75.8424 46.9928 81.4287 39.9952 81.7852C32.8769 82.1418 26.4222 76.9121 26.0602 69.8402C25.6983 63.006 25.9999 56.1719 25.9999 49.0405Z" fill="#00ADEE"/>
<path d="M88.5563 81.0128C88.5563 72.6929 88.5563 64.6107 88.5563 56.1126C85.902 56.1126 83.3684 56.1126 80.7141 56.1126C80.7141 53.6166 80.7141 51.4772 80.7141 49.1001C88.3753 49.1001 95.9159 49.1001 103.818 49.1001C103.818 51.2395 103.818 53.4383 103.818 55.9937C101.285 55.9937 98.6908 55.9937 95.9159 55.9937C95.9159 64.4919 95.9159 72.6929 95.9159 81.0128C93.4426 81.0128 91.2106 81.0128 88.5563 81.0128Z" fill="#00ADEE"/>
<path d="M66.4172 49.0405C68.9508 49.0405 71.1225 49.0405 73.5355 49.0405C73.5958 49.8131 73.7768 50.5262 73.7768 51.2988C73.7768 55.8747 73.7768 60.3912 73.7768 64.9672C73.7768 72.6928 75.1643 74.0596 83.1271 74.0596C84.2129 74.0596 85.2988 74.0596 86.6259 74.0596C86.6259 76.4961 86.6259 78.695 86.6259 81.4286C82.8858 81.1315 79.1457 81.3098 75.6468 80.4778C70.3986 79.2298 66.5982 74.3567 66.4775 69.246C66.2362 62.6495 66.4172 55.9936 66.4172 49.0405Z" fill="#00ADEE"/>
<path d="M56.7051 49.1001C58.5148 49.1001 60.3245 49.1001 62.1343 49.1001C62.3152 49.1001 62.5565 49.1001 62.7375 49.1595C62.9185 49.7538 63.2804 50.3481 63.2804 50.9424C63.3408 60.3914 63.3408 69.8998 63.2804 79.3488C63.2804 79.9431 62.9185 80.5374 62.7375 81.1316C62.5565 81.1316 62.3756 81.1316 62.1343 81.1911C60.3245 81.1911 58.5148 81.1911 56.7051 81.1911C56.4638 81.0128 56.2828 80.8345 56.0415 80.6562C56.0415 70.3752 56.0415 60.0942 56.0415 49.7538C56.2225 49.4567 56.4638 49.2784 56.7051 49.1001Z" fill="#00ADEE"/>
</g>
<defs>
<clipPath id="clip0_12_3">
<rect width="104" height="82" fill="white"/>
</clipPath>
</defs>
</svg>
