<svg width="77" height="60" viewBox="0 0 77 60" fill="none" xmlns="http://www.w3.org/2000/svg">
<g clip-path="url(#clip0_3124_374)">
<path d="M0.840626 0.504282C0.840626 7.91431 0.752995 15.15 0.884441 22.4292C0.928257 25.1753 2.02364 27.6599 3.73244 29.7957C7.41293 34.4596 13.4594 36.3339 19.024 34.5468C24.8076 32.6725 28.6196 27.4419 28.6634 21.1652C28.7072 14.7141 28.6634 8.26302 28.6634 1.76835C28.6634 1.37605 28.5758 0.940166 28.5319 0.54787C25.9468 0.54787 23.4932 0.54787 20.9957 0.54787C20.9957 1.41964 20.9957 2.11705 20.9957 2.85806C20.9957 8.82967 21.0395 14.7577 20.9957 20.7293C20.9957 24.1292 18.9364 26.6573 16.0007 27.224C11.9259 27.9214 8.59595 25.1753 8.55213 20.9472C8.4645 14.932 8.55213 8.91684 8.50831 2.85806C8.50831 2.07346 8.50831 1.33246 8.50831 0.460693C5.87939 0.504282 3.46955 0.504282 0.840626 0.504282Z" fill="#D8D7D7"/>
<path d="M55.8729 34.4596C58.3266 34.4596 60.7802 34.4596 63.4092 34.4596C63.4092 30.1007 63.4092 25.8727 63.4092 21.4702C67.7469 21.4702 71.8655 21.4702 76.028 21.4702C76.028 19.0293 76.028 16.7191 76.028 14.2346C71.7779 14.2346 67.6592 14.2346 63.5406 14.2346C63.5406 10.6167 65.9505 8.21937 69.6309 8.0886C71.7779 8.00142 73.9687 8.0886 76.1594 8.0886C76.1594 5.42971 76.1594 2.98876 76.1594 0.547808C73.4867 0.547808 70.9454 0.417043 68.4041 0.591396C62.0509 1.02728 56.4863 5.64765 56.0044 12.0116C55.4786 19.378 55.8729 26.8316 55.8729 34.4596Z" fill="#D8D7D7"/>
<path d="M32.782 0.504282C32.6506 0.722224 32.5629 0.852989 32.5629 0.983754C32.5191 7.73996 32.3439 14.4526 32.5629 21.2088C32.7382 27.8342 37.2512 33.0648 43.9111 34.1981C47.0658 34.7212 50.3958 34.2853 53.6819 34.2853C53.6819 31.9315 53.6819 29.4906 53.6819 26.7881C51.0092 26.7881 48.4679 26.8753 45.9704 26.7445C43.2539 26.6137 41.1507 24.8702 40.4935 22.2549C40.2744 21.3395 40.2306 20.3806 40.2306 19.4652C40.2306 13.1449 40.2306 6.86819 40.2306 0.460693C37.6017 0.504282 35.1919 0.504282 32.782 0.504282Z" fill="#D8D7D7"/>
<path d="M15.8691 46.6644C19.6373 42.6542 16.0444 36.3339 11.4 35.9416C7.93855 35.6365 4.47714 35.898 0.884277 35.898V59.4358C4.47714 59.4358 7.98237 59.5665 11.4438 59.3922C14.2918 59.2614 16.9645 56.9512 17.797 54.2051C18.7609 51.2847 17.8846 48.8002 15.8691 46.6644ZM6.22975 45.008V40.6492H9.86643C11.1371 40.7363 11.8819 41.5209 11.8819 42.785C11.8819 44.0491 11.1371 44.8336 9.91024 44.9644C8.77104 45.1388 7.63184 45.008 6.22975 45.008ZM10.3484 54.2487C9.03393 54.2923 7.76329 54.2487 6.31738 54.2487V49.7155C7.80711 49.7155 9.12157 49.672 10.3922 49.7155C11.7943 49.7591 12.5392 50.7181 12.5392 51.9821C12.4953 53.2462 11.7067 54.1616 10.3484 54.2487Z" fill="#00ADEE"/>
<path d="M19.6813 35.8545C21.5215 35.8545 23.0989 35.8545 24.8515 35.8545C24.8953 36.5083 24.9829 37.1186 24.9829 37.7724C24.9829 41.4774 24.8953 45.1824 25.0268 48.8874C25.0706 50.1515 25.3773 51.5027 25.9469 52.5924C26.7794 54.1616 28.7511 54.7283 30.5475 54.2052C32.3001 53.7257 33.5708 52.1566 33.6146 50.1515C33.6584 46.1414 33.6146 42.1748 33.6146 38.1647C33.6146 37.4673 33.6146 36.7263 33.6146 35.8981C35.411 35.8981 37.0322 35.8981 38.96 35.8981C38.96 38.3826 38.96 40.8236 38.96 43.3081C38.96 45.6183 39.0039 47.9721 38.96 50.2823C38.8724 55.5129 34.929 59.6102 29.8464 59.8717C24.6762 60.1332 19.988 56.2975 19.7251 51.1104C19.4622 46.0978 19.6813 41.0851 19.6813 35.8545Z" fill="#00ADEE"/>
<path d="M65.1179 59.3049C65.1179 53.2025 65.1179 47.2745 65.1179 41.0414C63.19 41.0414 61.3498 41.0414 59.4219 41.0414C59.4219 39.2107 59.4219 37.6415 59.4219 35.8979C64.9864 35.8979 70.4633 35.8979 76.2032 35.8979C76.2032 37.4671 76.2032 39.0799 76.2032 40.9542C74.3629 40.9542 72.4788 40.9542 70.4633 40.9542C70.4633 47.1873 70.4633 53.2025 70.4633 59.3049C68.6669 59.3049 67.0457 59.3049 65.1179 59.3049Z" fill="#00ADEE"/>
<path d="M49.0376 35.8545C50.8778 35.8545 52.4552 35.8545 54.2078 35.8545C54.2516 36.4211 54.383 36.9442 54.383 37.5109C54.383 40.8672 54.383 44.1799 54.383 47.5362C54.383 53.2027 55.3908 54.2052 61.1744 54.2052C61.9631 54.2052 62.7518 54.2052 63.7157 54.2052C63.7157 55.9923 63.7157 57.6051 63.7157 59.6102C60.9992 59.3922 58.2826 59.523 55.7413 58.9128C51.9294 57.9974 49.169 54.4232 49.0814 50.6745C48.9061 45.8362 49.0376 40.9543 49.0376 35.8545Z" fill="#00ADEE"/>
<path d="M41.9834 35.8979C43.2979 35.8979 44.6124 35.8979 45.9268 35.8979C46.0583 35.8979 46.2335 35.8979 46.365 35.9415C46.4964 36.3774 46.7593 36.8133 46.7593 37.2492C46.8031 44.1797 46.8031 51.1539 46.7593 58.0844C46.7593 58.5203 46.4964 58.9562 46.365 59.3921C46.2335 59.3921 46.1021 59.3921 45.9268 59.4357C44.6124 59.4357 43.2979 59.4357 41.9834 59.4357C41.8082 59.3049 41.6767 59.1741 41.5015 59.0434C41.5015 51.5026 41.5015 43.9618 41.5015 36.3774C41.6329 36.1595 41.8082 36.0287 41.9834 35.8979Z" fill="#00ADEE"/>
<path d="M41.9834 35.8979C41.8082 36.0287 41.6767 36.2031 41.5015 36.3338C41.6329 36.1595 41.8082 36.0287 41.9834 35.8979Z" fill="#00ADEE"/>
<path d="M46.321 35.8981C46.1895 35.8981 46.0143 35.8981 45.8828 35.8545C46.0581 35.8981 46.1895 35.8981 46.321 35.8981Z" fill="#00ADEE"/>
<path d="M41.5015 59C41.6767 59.1308 41.8082 59.2615 41.9834 59.3923C41.8082 59.2615 41.6329 59.1308 41.5015 59Z" fill="#00ADEE"/>
<path d="M45.9268 59.3922C46.0582 59.3922 46.1896 59.3922 46.3649 59.3486C46.1896 59.3486 46.0582 59.3922 45.9268 59.3922Z" fill="#00ADEE"/>
</g>
<defs>
<clipPath id="clip0_3124_374">
<rect width="75.4062" height="59.411" fill="white" transform="translate(0.796875 0.460693)"/>
</clipPath>
</defs>
</svg>
