<svg width="43" height="43" viewBox="0 0 43 43" fill="none" xmlns="http://www.w3.org/2000/svg">
<circle opacity="0.6" cx="21.281" cy="21.281" r="21.281" transform="matrix(-1 0 0 1 43.0005 0.351562)" fill="#D8D7D7"/>
<path d="M18.0684 30.1495C18.4104 30.1571 18.6993 30.0352 18.9349 29.7913C21.3673 27.3683 23.792 24.9376 26.2167 22.4992C26.7108 22.0039 26.7032 21.2801 26.2091 20.7848C23.7844 18.3465 21.3597 15.9158 18.9273 13.4851C18.4409 12.9974 17.6884 13.0126 17.2171 13.4851C16.7306 13.9651 16.7306 14.7118 17.2399 15.2224C18.5169 16.5101 19.8014 17.7902 21.0784 19.078C21.8765 19.878 22.667 20.6781 23.4727 21.4706C23.6172 21.6153 23.602 21.6839 23.4651 21.8211C21.4129 23.8708 19.3606 25.9281 17.3083 27.9855C16.9434 28.3512 16.7686 28.7551 16.9054 29.2732C17.0575 29.799 17.5211 30.1495 18.0684 30.1495Z" fill="#263A63"/>
</svg>
