<?xml version="1.0" encoding="UTF-8" standalone="no" ?>
<!DOCTYPE svg PUBLIC "-//W3C//DTD SVG 1.1//EN" "http://www.w3.org/Graphics/SVG/1.1/DTD/svg11.dtd">
<svg xmlns="http://www.w3.org/2000/svg" xmlns:xlink="http://www.w3.org/1999/xlink" version="1.1" width="1080" height="1080" viewBox="0 0 1080 1080" xml:space="preserve">
<desc>Created with Fabric.js 5.2.4</desc>
<defs>
</defs>
<g transform="matrix(1 0 0 1 540 540)" id="36585eaa-e066-4ca0-993c-57f061f8699a"  >
<rect style="stroke: none; stroke-width: 1; stroke-dasharray: none; stroke-linecap: butt; stroke-dashoffset: 0; stroke-linejoin: miter; stroke-miterlimit: 4; fill: rgb(255,255,255); fill-rule: nonzero; opacity: 1; visibility: hidden;" vector-effect="non-scaling-stroke"  x="-540" y="-540" rx="0" ry="0" width="1080" height="1080" />
</g>
<g transform="matrix(1 0 0 1 540 540)" id="6a4e216a-e828-4b1d-a1d1-c644e2c930ee"  >
</g>
<g transform="matrix(-54 0 0 -54 540 540)"  >
<path style="stroke: none; stroke-width: 1; stroke-dasharray: none; stroke-linecap: butt; stroke-dashoffset: 0; stroke-linejoin: miter; stroke-miterlimit: 4; fill: rgb(0,0,0); fill-rule: nonzero; opacity: 1;"  transform=" translate(-10, -6.99)" d="M 1.07734 7.58911 L 6.91067 13.4224 C 7.06784 13.5742 7.27834 13.6582 7.49684 13.6563 C 7.71533 13.6544 7.92435 13.5668 8.07885 13.4123 C 8.23336 13.2578 8.321 13.0488 8.3229 12.8303 C 8.3248 12.6118 8.2408 12.4013 8.089 12.2441 L 3.67817 7.83328 L 18.3332 7.83328 C 18.5542 7.83328 18.7661 7.74548 18.9224 7.5892 C 19.0787 7.43292 19.1665 7.22096 19.1665 6.99995 C 19.1665 6.77893 19.0787 6.56697 18.9224 6.41069 C 18.7661 6.25441 18.5542 6.16661 18.3332 6.16661 L 3.67817 6.16661 L 8.089 1.75578 C 8.1686 1.67891 8.23208 1.58695 8.27576 1.48528 C 8.31943 1.38361 8.34242 1.27426 8.34338 1.16361 C 8.34434 1.05296 8.32326 0.943231 8.28136 0.840817 C 8.23946 0.738403 8.17758 0.64536 8.09933 0.567116 C 8.02109 0.488872 7.92805 0.426993 7.82563 0.385093 C 7.72322 0.343192 7.61349 0.322107 7.50284 0.323069 C 7.39219 0.324031 7.28284 0.34702 7.18117 0.390694 C 7.0795 0.434368 6.98754 0.497852 6.91067 0.577444 L 1.07734 6.41078 C 0.921111 6.56705 0.833348 6.77897 0.833348 6.99994 C 0.833348 7.22091 0.921111 7.43284 1.07734 7.58911 Z" stroke-linecap="round" />
</g>
</svg>