<svg width="45" height="44" viewBox="0 0 45 44" fill="none" xmlns="http://www.w3.org/2000/svg">
<circle cx="20.7739" cy="20.7739" r="20.7739" transform="matrix(-1 0 0 1 43.043 1.13281)" fill="white" fill-opacity="0.6" stroke="#D7D7D7" stroke-width="2"/>
<path d="M18.7049 30.2204C19.0388 30.2278 19.3207 30.1088 19.5508 29.8708C21.9251 27.5054 24.2921 25.1326 26.6591 22.7524C27.1414 22.2689 27.1339 21.5623 26.6516 21.0788C24.2847 18.6986 21.9177 16.3258 19.5433 13.953C19.0685 13.477 18.3339 13.4919 17.8739 13.953C17.399 14.4216 17.399 15.1506 17.8961 15.6489C19.1427 16.906 20.3966 18.1556 21.6432 19.4127C22.4223 20.1937 23.1939 20.9747 23.9805 21.7483C24.1214 21.8896 24.1066 21.9565 23.973 22.0904C21.9697 24.0913 19.9663 26.0996 17.9629 28.1079C17.6067 28.465 17.4361 28.8592 17.5696 29.365C17.718 29.8782 18.1707 30.2204 18.7049 30.2204Z" fill="#61C3E5"/>
</svg>
