<svg width="11" height="18" viewBox="0 0 11 18" fill="none" xmlns="http://www.w3.org/2000/svg">
<path d="M8.87984 17.1807C8.53779 17.1883 8.24895 17.0664 8.01332 16.8226C5.58099 14.3995 3.15625 11.9688 0.731518 9.53048C0.23745 9.0352 0.245052 8.31132 0.739119 7.81604C3.16385 5.37771 5.58859 2.94701 8.02092 0.516306C8.50739 0.0286417 9.25989 0.0438812 9.73116 0.516306C10.2176 0.996351 10.2176 1.74309 9.70835 2.25361C8.43138 3.54135 7.1468 4.82147 5.86983 6.10921C5.07172 6.90928 4.28121 7.70936 3.4755 8.50181C3.33108 8.64659 3.34628 8.71517 3.4831 8.85232C5.53538 10.902 7.58766 12.9594 9.63994 15.0167C10.0048 15.3825 10.1796 15.7863 10.0428 16.3044C9.89078 16.8302 9.42712 17.1807 8.87984 17.1807Z" fill="#61C3E5"/>
</svg>
